<svg width="114" height="89" viewBox="0 0 114 89" fill="none" xmlns="http://www.w3.org/2000/svg">
<path d="M64.4866 75.3624C82.614 75.3624 97.3092 58.492 97.3092 37.6812C97.3092 16.8704 82.614 0 64.4866 0C46.3592 0 31.6641 16.8704 31.6641 37.6812C31.6641 58.492 46.3592 75.3624 64.4866 75.3624Z" fill="#EE992E"/>
<path d="M40.1845 0C46.9462 0 50.6434 2.75698 50.6434 12.6606C50.6434 22.5641 46.883 25.3937 40.1518 25.3937H32.0312V0H40.1845ZM36.4242 4.09916V21.2946H40.1518C44.2285 21.2946 46.1545 19.2262 46.1545 12.6606C46.1545 6.0949 44.3223 4.09916 40.1518 4.09916H36.4242Z" fill="white"/>
<path d="M65.7775 19.5898C65.3674 23.4711 63.1557 25.7573 58.3527 25.7573C53.5497 25.7573 50.4219 23.0354 50.4219 15.9263C50.4219 8.81727 53.4559 6.16797 58.3527 6.16797C63.2495 6.16797 66.157 8.99756 66.157 15.0549C66.157 15.7085 66.0937 16.2894 65.9672 16.8328H54.7821C54.9391 20.679 56.1082 22.0938 58.3527 22.0938C60.5971 22.0938 61.5438 21.0421 61.7968 19.0839L65.7775 19.5923V19.5898ZM61.9538 14.0032C61.9211 11.0284 60.752 9.68618 58.3505 9.68618C56.2653 9.68618 55.1267 10.8831 54.8431 14.0032H61.9538Z" fill="white"/>
<path d="M66.1526 32.2879V6.53106H70.07L70.323 9.68618C71.0821 7.39997 72.4715 6.16797 75.1893 6.16797C79.3597 6.16797 82.0142 8.81727 82.0142 15.9614C82.0142 23.1055 79.3292 25.7548 75.1565 25.7548C72.4715 25.7548 71.2064 24.5929 70.3841 22.4544V32.2854H66.1504L66.1526 32.2879ZM77.654 15.9639C77.654 11.394 76.4849 9.86898 73.9263 9.86898C71.5881 9.86898 70.3252 11.429 70.3252 15.9989C70.3252 20.5689 71.5881 22.0563 73.9263 22.0563C76.4543 22.0563 77.654 20.5689 77.654 15.9614V15.9639Z" fill="white"/>
<path d="M81.0039 6.49561H83.5319V2.1786L87.7656 1.59766V6.49561H91.3362V10.124H87.7656V18.9383C87.7656 20.6786 88.3349 21.8405 89.8508 21.8405C90.2609 21.8405 90.8629 21.7679 91.3362 21.6602V25.2886C90.6099 25.5791 89.8508 25.7243 88.8715 25.7243C85.2376 25.7243 83.5319 23.4757 83.5319 19.1937V10.1215H81.0039V6.49311V6.49561Z" fill="white"/>
<path d="M73.9453 25.4014C78.7177 25.4014 82.0353 27.8328 82.0353 35.1948C82.0353 42.5567 78.7483 44.9882 73.978 44.9882C69.2077 44.9882 65.8574 42.5567 65.8574 35.1948C65.8574 27.8328 69.175 25.4014 73.9475 25.4014H73.9453ZM73.9758 41.2897C76.4406 41.2897 77.6729 39.6946 77.6729 35.1948C77.6729 30.695 76.41 29.0999 73.9453 29.0999C71.4805 29.0999 70.2176 30.695 70.2176 35.1948C70.2176 39.6946 71.4805 41.2897 73.978 41.2897H73.9758Z" fill="white"/>
<path d="M91.3561 29.9537C90.8828 29.8435 90.5033 29.7734 90.0932 29.7734C88.7343 29.7734 87.5347 30.4996 87.5347 32.638V42.1785H90.9483V45.8069H87.5347V50.169H83.301V45.8069H80.6465V42.1785H83.301V32.638C83.301 27.9579 86.0188 26.1074 89.2731 26.1074C90.0627 26.1074 90.7258 26.2151 91.3583 26.433V29.9512L91.3561 29.9537Z" fill="white"/>
<path d="M0 47.8696H2.528V43.5526L6.7617 42.9717V47.8696H10.3323V51.498H6.7617V60.3123C6.7617 62.0527 7.33099 63.2146 8.84692 63.2146C9.25698 63.2146 9.85899 63.1419 10.3323 63.0343V66.6627C9.60597 66.9531 8.84692 67.0984 7.86756 67.0984C4.23369 67.0984 2.528 64.8497 2.528 60.5678V51.498H0V47.8696Z" fill="white"/>
<path d="M24.379 60.9638C23.969 64.8451 21.7572 67.1313 16.9543 67.1313C12.1513 67.1313 9.02344 64.4094 9.02344 57.3003C9.02344 50.1913 12.0575 47.542 16.9543 47.542C21.851 47.542 24.7586 50.3716 24.7586 56.4289C24.7586 57.0825 24.6953 57.6609 24.5688 58.2068H13.3836C13.5407 62.0531 14.7098 63.4654 16.9543 63.4654C19.1987 63.4654 20.1453 62.4136 20.3984 60.4555L24.379 60.9638ZM20.5554 55.3772C20.5227 52.4024 19.3557 51.0602 16.9521 51.0602C14.8669 51.0602 13.7283 52.2572 13.4447 55.3772H20.5554Z" fill="white"/>
<path d="M32.2655 51.2424C29.9578 51.2424 28.8214 52.8751 28.8214 57.3724C28.8214 61.8697 29.9578 63.4673 32.2655 63.4673C34.3834 63.4673 35.4566 62.4156 35.5831 59.8389L39.723 60.3472C39.5965 65.3904 36.7522 67.1683 32.235 67.1683C27.3687 67.1683 24.4612 64.484 24.4612 57.3749C24.4612 50.2659 27.3055 47.5439 32.235 47.5439C36.7544 47.5439 39.5965 49.3944 39.723 54.4001L35.5831 54.9084C35.4566 52.3693 34.3834 51.245 32.2655 51.245V51.2424Z" fill="white"/>
<path d="M43.9485 40.2148V50.807C44.6749 48.7036 46.1603 47.5417 48.7821 47.5417C52.7322 47.5417 54.8174 50.191 54.8174 55.5948V66.768H50.5837V55.705C50.5837 52.6576 49.5717 51.2428 47.3926 51.2428C45.2136 51.2428 43.9485 52.8028 43.9485 56.2859V66.7705H39.7148V40.2173H43.9485V40.2148Z" fill="white"/>
<path d="M59.4557 47.9051L59.676 51.1704C60.3718 48.7765 61.9837 47.542 64.6688 47.542C68.6189 47.542 70.7041 50.1187 70.7041 55.56V66.7682H66.4704V55.6677C66.4704 52.6578 65.4584 51.243 63.2794 51.243C61.1003 51.243 59.8353 52.803 59.8353 56.2486V66.7682H55.6016V47.9051H59.4557Z" fill="white"/>
<path d="M72.3828 47.8701H76.6165V66.7333H72.3828V47.8701Z" fill="white"/>
<path d="M85.5384 51.2424C83.2307 51.2424 82.0943 52.8751 82.0943 57.3724C82.0943 61.8697 83.2307 63.4673 85.5384 63.4673C87.6564 63.4673 88.7295 62.4156 88.856 59.8389L92.9959 60.3472C92.8694 65.3904 90.0251 67.1683 85.5079 67.1683C80.6417 67.1683 77.7341 64.484 77.7341 57.3749C77.7341 50.2659 80.5784 47.5439 85.5079 47.5439C90.0273 47.5439 92.8694 49.3944 92.9959 54.4001L88.856 54.9084C88.7295 52.3693 87.6564 51.245 85.5384 51.245V51.2424Z" fill="white"/>
<path d="M92.711 53.419C92.711 49.8282 95.2696 47.542 99.9155 47.542C104.561 47.542 107.246 49.7556 107.246 54.651V61.0364C107.246 62.5238 107.689 63.1774 108.509 63.1774H108.826L108.416 66.7682H106.773C105.067 66.7682 104.055 66.0796 103.519 64.6272C102.57 66.0771 101.024 67.0587 98.5893 67.0587C95.3023 67.0587 92.5234 65.3534 92.5234 61.5447C92.5234 57.7361 95.588 56.176 99.0016 56.176C100.677 56.176 101.876 56.5742 103.015 57.1927V54.6535C103.015 52.187 101.94 51.0978 99.9177 51.0978C97.8957 51.0978 96.8531 52.1144 96.8531 53.9274V54.3631L92.7132 53.8547V53.419H92.711ZM103.013 59.877C102.033 59.3336 100.958 59.0056 99.7257 59.0056C98.0833 59.0056 96.7549 59.6592 96.7549 61.3269C96.7549 62.8869 97.8914 63.6482 99.5665 63.6482C101.115 63.6482 102.188 63.0322 103.011 61.9804V59.877H103.013Z" fill="white"/>
<path d="M109.383 40.2148H113.617V66.768H109.383V40.2148Z" fill="white"/>
<path d="M44.0489 74.3888C44.0489 70.7979 46.6074 68.5117 51.2534 68.5117C55.8993 68.5117 58.5844 70.7253 58.5844 75.6208V82.0061C58.5844 83.4936 58.8745 87.6027 59.6968 87.6027L59.7535 87.7379H58.1111C56.4054 87.7379 55.3933 87.0493 54.8567 85.597C53.9079 87.0468 52.3614 88.0284 49.9272 88.0284C46.6402 88.0284 43.8613 86.3232 43.8613 82.5145C43.8613 78.7058 46.9259 77.1457 50.3395 77.1457C52.0146 77.1457 53.2143 77.5439 54.3529 78.1624V75.6233C54.3529 73.1568 53.2775 72.0675 51.2556 72.0675C49.2336 72.0675 48.191 73.0841 48.191 74.8971V75.3328L44.0511 74.8245V74.3888H44.0489ZM54.3507 80.8468C53.3713 80.3034 52.296 79.9753 51.0636 79.9753C49.4212 79.9753 48.0928 80.6289 48.0928 82.2966C48.0928 83.8566 49.2292 84.6179 50.9044 84.6179C52.453 84.6179 53.5262 84.0019 54.3485 82.9502V80.8468H54.3507Z" fill="white"/>
<path d="M70.0552 72.4733C69.5448 72.4583 69.1631 72.4332 68.657 72.4332C66.4126 72.4332 64.6829 74.4966 64.6829 78.5582V87.7356H60.4492V68.8724H64.3034L64.5237 72.3556C65.1562 69.9968 66.4126 68.8549 68.5938 68.8549C69.0998 68.8549 69.6124 68.7998 70.0334 68.8073L70.053 72.4708L70.0552 72.4733Z" fill="white"/>
<path d="M69.8516 68.8374H72.3796V64.5204L76.6133 63.9395V68.8374H80.1839V72.4658H76.6133V81.2801C76.6133 83.0204 77.1825 84.1823 78.6985 84.1823C79.1085 84.1823 79.7105 84.1097 80.1839 84.002V87.6304C79.4575 87.9209 78.6985 88.0661 77.7191 88.0661C74.0853 88.0661 72.3796 85.8175 72.3796 81.5355V72.4658H69.8516V68.8374Z" fill="white"/>
<path d="M94.2203 82.4048C94.2203 86.3963 91.629 88.0991 86.8893 88.0991C82.1496 88.0991 79.6543 85.9957 79.6543 82.3322L83.6677 81.8239C83.6677 83.6744 84.8368 84.5809 86.922 84.5809C89.0072 84.5809 90.0193 83.8922 90.0193 82.3673C90.0193 80.8423 88.6604 80.4817 86.3855 80.0084C82.6578 79.2472 79.6543 78.1955 79.6543 74.2416C79.6543 70.2876 82.3721 68.5098 86.9853 68.5098C91.5985 68.5098 94.157 70.5055 94.157 74.204L90.1436 74.7123C90.1436 72.8268 88.9418 71.9929 86.9831 71.9929C85.0244 71.9929 83.8553 72.6815 83.8553 74.2065C83.8553 75.7315 85.2774 76.0195 87.6156 76.4927C91.5331 77.3641 94.2203 78.3783 94.2203 82.4048Z" fill="white"/>
<path d="M98.15 21.4854H96.3767C95.9333 21.4854 95.574 21.8979 95.574 22.4068V24.4427C95.574 24.9516 95.9333 25.3642 96.3767 25.3642H98.15C98.5933 25.3642 98.9526 24.9516 98.9526 24.4427V22.4068C98.9526 21.8979 98.5933 21.4854 98.15 21.4854Z" fill="white"/>
</svg>
